<svg width="100" height="100" viewBox="0 0 100 100" fill="none" xmlns="http://www.w3.org/2000/svg">
<g id="featureCard__icon">
<g id="Group">
<path id="Vector" d="M39.2897 27.225L37.893 27.3148C35.5537 27.3144 33.2774 26.5565 31.4048 25.1545C29.5321 23.7525 28.1638 21.7818 27.5045 19.5373L23.17 4.78182C23.1141 4.59154 23.1074 4.3902 23.1506 4.19665C23.1938 4.00309 23.2854 3.82366 23.4168 3.67514C23.5482 3.52663 23.7151 3.4139 23.902 3.3475C24.0889 3.2811 24.2895 3.26321 24.4852 3.29549L39.6588 5.7994C41.3324 6.07412 42.9177 6.73917 44.2863 7.74069C45.655 8.74222 46.7684 10.052 47.5366 11.564C48.3047 10.052 49.4182 8.74222 50.7868 7.74069C52.1555 6.73917 53.7408 6.07412 55.4143 5.7994L70.5879 3.29549C70.7836 3.26319 70.9843 3.28108 71.1712 3.34749C71.3581 3.4139 71.525 3.52665 71.6565 3.67519C71.7879 3.82373 71.8795 4.00319 71.9226 4.19678C71.9658 4.39036 71.9591 4.59173 71.9032 4.78202L67.5686 19.5373C66.9025 21.7798 65.5331 23.7488 63.6626 25.1536C61.792 26.5585 59.5194 27.3248 57.1801 27.3394L55.7832 27.2496C54.1 27.029 52.493 26.4126 51.094 25.451C50.881 25.854 50.6764 26.2614 50.4803 26.6728C54.7716 27.0805 58.8697 28.6542 62.3308 31.2237C65.7919 33.7932 68.4842 37.2605 70.1162 41.2502C71.7483 45.2399 72.2578 49.6001 71.5897 53.8586C70.9217 58.1172 69.1014 62.1118 66.326 65.4101L64.5332 63.8994C67.7604 60.0612 69.5302 55.2077 69.5311 50.1932C69.5311 49.85 69.5221 49.5096 69.5061 49.1693C69.0947 49.1766 68.6921 49.2898 68.3372 49.4981C67.9823 49.7063 67.6871 50.0026 67.4801 50.3582C67.2485 50.7554 66.9609 51.1172 66.626 51.4324L65.0291 52.9353C64.6038 53.335 64.087 53.6245 63.5241 53.7785L63.3373 53.8295C62.9928 53.9243 62.6786 54.1067 62.4253 54.3589C62.1721 54.6111 61.9883 54.9246 61.892 55.2687L61.036 58.3576C60.8936 58.8726 60.6537 59.3555 60.3293 59.7801L57.7354 63.1808C57.5277 63.4538 57.3896 63.7732 57.3329 64.1115L56.9483 66.4195L54.7272 66.0484C54.8241 66.2893 54.9034 66.5369 54.9643 66.7892L52.6842 67.331C52.5666 66.8527 52.3407 66.4078 52.0241 66.0305L51.2723 65.1264C51.0402 64.8479 50.8659 64.526 50.7596 64.1795L49.9874 61.6742C49.8316 61.1661 49.5211 60.7194 49.0991 60.3965L46.8014 58.6322C46.3956 58.3264 46.1229 57.8764 46.0397 57.3752C45.9947 57.0959 46.0109 56.8101 46.087 56.5376C46.1632 56.2652 46.2975 56.0124 46.4807 55.7969L48.0102 53.9973L49.3805 52.1101C49.7858 51.5256 50.3222 51.044 50.9469 50.7037C51.5715 50.3634 52.2671 50.1739 52.978 50.1504L55.2276 48.8008C55.7453 48.492 56.3339 48.3222 56.9366 48.3075C57.5392 48.2929 58.1354 48.4341 58.6674 48.7174L59.9264 49.3918C60.2167 49.5459 60.5543 49.5851 60.8721 49.5015C61.19 49.4179 61.4646 49.2176 61.6415 48.9406L62.8645 47.0096C63.0195 46.7649 63.0996 46.4803 63.0951 46.1907C63.0906 45.9011 63.0016 45.6192 62.8391 45.3795C62.6496 45.0976 62.3852 44.8741 62.0756 44.7342C61.766 44.5943 61.4236 44.5435 61.0868 44.5875L59.2522 44.8203C58.7037 44.8944 58.1455 44.8051 57.6475 44.5634C57.1495 44.3217 56.7339 43.9385 56.4528 43.4617C56.2823 43.1681 56.0289 42.9313 55.7244 42.7809C55.4199 42.6306 55.0779 42.5734 54.7411 42.6166L53.9389 42.7189C53.4547 42.7797 52.9631 42.7132 52.5125 42.5261C52.0618 42.3389 51.6677 42.0376 51.369 41.6517L50.6622 40.7338C50.1982 40.1348 49.9378 39.4033 49.9188 38.6459C49.8999 37.8885 50.1234 37.1448 50.5569 36.5234L52.0803 34.3258C52.7635 33.3435 53.6517 32.5212 54.6834 31.9154C54.8773 31.8019 55.0645 31.6774 55.2442 31.5426L56.5239 30.5803C54.2972 29.6371 51.9252 29.083 49.5112 28.942C49.1834 29.8018 48.8966 30.6767 48.6518 31.5637C48.5781 31.83 48.4127 32.0618 48.1847 32.218C47.9567 32.3743 47.6808 32.4449 47.4058 32.4174C47.1308 32.3899 46.8743 32.2661 46.6817 32.0678C46.4892 31.8696 46.3729 31.6097 46.3534 31.334C46.1347 30.563 45.886 29.807 45.6071 29.066C41.9769 29.5168 38.5254 30.9003 35.5889 33.0816L39.484 38.3758L40.3192 39.8037C40.5518 40.2142 40.6508 40.687 40.6025 41.1564C40.5541 41.6257 40.3607 42.0684 40.0493 42.4228C39.5433 43.0015 38.8417 43.3732 38.0788 43.4668L37.6795 43.516C37.1414 43.5825 36.6341 43.8037 36.2193 44.1528C35.8044 44.502 35.4997 44.964 35.3422 45.4828C35.192 45.9812 35.1877 46.5121 35.3299 47.0128C35.472 47.5135 35.7546 47.9631 36.1442 48.3082L40.0528 51.8043C40.3637 52.0871 40.6105 52.4332 40.7765 52.8194C40.9426 53.2055 41.0241 53.6227 41.0155 54.043V54.9705C41.0256 55.3848 40.9302 55.7949 40.7384 56.1623C40.5467 56.5297 40.2647 56.8423 39.919 57.0709C39.5923 57.2835 39.3184 57.5679 39.1181 57.9023C38.9178 58.2367 38.7964 58.6124 38.7631 59.0008L38.6825 59.9076C38.6307 60.46 38.3733 60.9729 37.9613 61.3445C37.5493 61.7161 37.0127 61.9194 36.4579 61.9141H34.1416C33.3373 61.9177 32.5493 61.6867 31.8743 61.2492C31.1993 60.8116 30.6666 60.1867 30.3414 59.451L30.2024 59.1433C30.032 58.7518 29.7677 58.4083 29.433 58.1431C29.0983 57.878 28.7034 57.6993 28.2832 57.623C29.0725 59.7385 30.1943 61.7146 31.6063 63.4766L29.7758 64.9414C27.1888 61.7021 25.4993 57.8392 24.8769 53.7406C24.2546 49.642 24.7212 45.4518 26.23 41.5905C27.7387 37.7292 30.2366 34.3327 33.4729 31.7418C36.7091 29.151 40.57 27.4569 44.6678 26.8297C44.448 26.3594 44.2182 25.8959 43.9784 25.4392C42.5786 26.3967 40.9718 27.0087 39.2897 27.225ZM55.8676 33.9389C55.1301 34.372 54.4952 34.9598 54.0067 35.6619L52.4832 37.8596C52.3346 38.0727 52.2579 38.3279 52.2645 38.5877C52.271 38.8475 52.3604 39.0984 52.5196 39.3039L53.2264 40.2219C53.2754 40.2839 53.3394 40.3325 53.4125 40.3628C53.4855 40.3932 53.565 40.4044 53.6436 40.3953L54.4457 40.2928C55.2396 40.1908 56.046 40.3255 56.7636 40.6799C57.4813 41.0343 58.0784 41.5926 58.4801 42.2849C58.5309 42.3627 58.6031 42.4241 58.6879 42.4617C58.7728 42.4994 58.8667 42.5116 58.9584 42.4971L60.7922 42.2642C61.5589 42.1642 62.3383 42.2798 63.0429 42.5982C63.7475 42.9166 64.3494 43.4252 64.7809 44.0668C65.1996 44.6843 65.4288 45.4107 65.4403 46.1567C65.4518 46.9027 65.2452 47.6358 64.8457 48.266L63.6225 50.1953C63.1274 50.9709 62.3583 51.5316 61.4685 51.7656C60.5786 51.9997 59.6332 51.8899 58.8206 51.4582L57.5614 50.7838C57.387 50.6909 57.1917 50.6446 56.9942 50.6494C56.7967 50.6542 56.6039 50.7099 56.4342 50.8111L54.045 52.2447C53.7582 52.4168 53.4284 52.5035 53.0942 52.4949C52.7361 52.5017 52.385 52.5945 52.0703 52.7654C51.7556 52.9363 51.4866 53.1803 51.286 53.4769L49.7969 55.5158L48.5307 57.0056L50.5272 58.5377C51.3351 59.1561 51.9296 60.0114 52.2278 60.9842L52.9998 63.4894C53.0155 63.5402 53.0411 63.5874 53.075 63.6283L53.8266 64.5322C54.1672 64.9416 54.4483 65.397 54.6616 65.8849L55.0215 63.7252C55.1414 63.0104 55.4335 62.3355 55.8725 61.7588L58.4663 58.358C58.6096 58.1708 58.7157 57.9578 58.7788 57.7307L59.6348 54.642C59.8406 53.9068 60.233 53.2373 60.774 52.6986C61.3149 52.1599 61.9861 51.7702 62.7221 51.5676L62.9086 51.5166C63.1015 51.4638 63.2785 51.3646 63.4243 51.2277L65.0211 49.7248C65.192 49.5638 65.339 49.3792 65.4575 49.1765C65.8506 48.5029 66.4038 47.9366 67.0682 47.528C67.7326 47.1193 68.4875 46.881 69.2661 46.834C68.7615 43.7057 67.5667 40.729 65.7683 38.1201C63.97 35.5111 61.6132 33.3354 58.8692 31.7508L56.6528 33.4174C56.4012 33.606 56.139 33.7801 55.8676 33.9389ZM26.953 50.1928C26.9521 51.8871 27.152 53.5755 27.5483 55.2228L28.0245 55.2445C28.951 55.283 29.848 55.5816 30.6127 56.1062C31.3774 56.6307 31.979 57.36 32.3485 58.2105L32.4875 58.5088C32.6296 58.8278 32.8619 59.0983 33.1558 59.2869C33.4497 59.4755 33.7924 59.5741 34.1416 59.5703H36.3711L36.4549 58.75C36.5179 58.0137 36.7483 57.3015 37.1284 56.6678C37.5085 56.0341 38.0284 55.4956 38.6483 55.0933C38.6944 55.0635 38.6717 55.0264 38.6717 54.9717V54.043C38.6804 53.9549 38.6698 53.8661 38.6404 53.7826C38.6111 53.6992 38.5639 53.6232 38.502 53.5599L34.5702 50.0654C33.8462 49.4216 33.3218 48.5838 33.0593 47.6512C32.7967 46.7186 32.8069 45.7303 33.0887 44.8033C33.3794 43.8497 33.9403 43.0009 34.7035 42.3596C35.4667 41.7183 36.3995 41.312 37.3889 41.19L37.7911 41.1408C37.9663 41.1194 38.1293 41.0395 38.2536 40.914L37.4618 39.5594L33.7827 34.583C31.6281 36.5723 29.909 38.9863 28.7335 41.6728C27.5581 44.3594 26.9518 47.2603 26.953 50.1928ZM29.7532 18.8767C30.0672 19.9624 30.5954 20.9742 31.3065 21.8526C32.0176 22.731 32.8973 23.4582 33.8938 23.9914C35.2789 24.7336 36.8418 25 38.4125 25C38.6062 24.9865 38.7987 24.9607 38.9891 24.9228C40.3698 24.7412 41.6839 24.2198 42.8135 23.4053C37.86 15.3269 30.1483 9.70702 26.3393 7.26092L29.7532 18.8767ZM56.0829 24.9228C56.2734 24.9608 56.4662 24.9865 56.66 25C58.2305 25 59.7934 24.7326 61.1788 23.9914C62.1748 23.4604 63.0544 22.7353 63.7656 21.8587C64.4768 20.9822 65.0051 19.972 65.3194 18.8879L68.7344 7.258C64.9258 9.6994 57.2124 15.3193 52.2565 23.4066C53.3867 24.221 54.7015 24.742 56.0829 24.9228ZM50.5272 21.7428C53.3747 17.2228 56.9307 13.5623 59.9327 10.9334C61.7491 9.3446 63.6543 7.86024 65.6391 6.48749L55.7954 8.1119C53.9027 8.42406 52.1717 9.36835 50.8847 10.7907C49.5978 12.2131 48.8308 14.0296 48.7088 15.9439C48.7268 16.3025 48.7268 16.6581 48.7088 17.0105C48.818 18.7365 49.4525 20.3878 50.5272 21.7428ZM47.1225 26.5865C47.3991 26.5736 47.677 26.567 47.9557 26.5629C48.3613 25.6402 48.8012 24.7441 49.2754 23.8746C48.5837 23.1338 47.9983 22.3003 47.5362 21.3982C47.0733 22.3019 46.4869 23.1368 45.7938 23.8787C46.2746 24.7625 46.718 25.6661 47.1229 26.5871L47.1225 26.5865ZM46.3624 17.0098C46.3454 16.6574 46.3454 16.3018 46.3624 15.943C46.2404 14.0287 45.4735 12.2122 44.1865 10.7898C42.8996 9.36743 41.1686 8.42312 39.276 8.11092L29.4323 6.48651C31.417 7.85932 33.3222 9.34367 35.1387 10.9324C39.4192 14.6808 42.4268 18.3738 44.5424 21.7439C45.6181 20.3888 46.2533 18.737 46.3627 17.0103L46.3624 17.0098Z" fill="#096E49"/>
<g id="Group_2">
<path id="Vector_2" d="M10.4477 67.9233C11.3791 66.372 12.8729 65.2398 14.6182 64.7625C16.3634 64.2852 18.2255 64.4996 19.8167 65.361L20.1899 65.5623C21.962 63.4584 24.9931 62.6522 27.3069 63.824C27.319 63.83 27.3309 63.8365 27.3427 63.8436L28.169 64.2988C30.6972 62.317 34.4249 62.0053 37.2065 63.6086L42.6706 66.6016H49.9468C51.516 66.5919 53.0631 66.2299 54.4737 65.5424L55.4772 65.0461C58.3562 63.6442 61.5678 63.0689 64.7544 63.3843C67.941 63.6997 70.9774 64.8935 73.5257 66.8326L73.5554 66.8571L75.9786 69.0129C76.5415 69.5147 77.1703 69.9372 77.8476 70.2688L78.4179 67.5518C78.4726 67.2868 78.6159 67.0484 78.8241 66.8757C79.0324 66.703 79.2933 66.6063 79.5638 66.6016H88.5481C88.7233 66.6061 88.8953 66.6489 89.0521 66.7268C89.209 66.8048 89.347 66.9161 89.4563 67.053C89.5657 67.1898 89.6438 67.3489 89.6853 67.5191C89.7268 67.6893 89.7306 67.8665 89.6964 68.0383L84.0323 95.7576C83.9775 96.0207 83.833 96.2565 83.6235 96.4247C83.414 96.5929 83.1525 96.683 82.8839 96.6797H73.7149C73.5314 96.6831 73.3497 96.6437 73.1841 96.5645C73.0186 96.4853 72.8738 96.3686 72.7612 96.2237C72.6631 96.0925 72.5942 95.9418 72.5591 95.7818C72.524 95.6218 72.5235 95.4561 72.5577 95.2959L73.4227 91.2069L65.7811 86.2961C64.8377 85.7769 63.7323 85.6352 62.6884 85.8996L47.9851 88.6104C44.1221 89.3014 40.1401 88.7807 36.5847 87.1198C36.3521 87.0091 36.1289 86.8797 35.9173 86.7328L10.7888 69.4938C10.5425 69.3248 10.37 69.0681 10.3066 68.7762C10.2433 68.4843 10.2937 68.1792 10.4477 67.9233ZM26.2304 65.9069C24.9659 65.277 23.3843 65.7715 22.3372 66.7211L32.3108 72.0959C32.5964 71.3129 32.997 70.5768 33.4993 69.9117L26.2304 65.9069ZM36.0741 65.6381C36.0647 65.6332 36.0546 65.628 36.0462 65.6227C34.4042 64.6709 32.2169 64.7065 30.5017 65.5836L35.2393 68.1938C36.1286 67.5379 37.1389 67.0646 38.212 66.801L36.0741 65.6381ZM81.9272 94.336L87.1126 68.9453H80.5138L75.1497 94.336H81.9272ZM36.914 84.5887C37.238 84.8118 37.5823 85.004 37.9423 85.1627C40.9654 86.4883 44.3141 86.8859 47.5636 86.3051L62.155 83.6182C63.78 83.2178 65.4964 83.4509 66.9558 84.2701L67.0161 84.3065L73.9409 88.7596L77.3515 72.6172C76.2791 72.1643 75.2887 71.5379 74.42 70.7631L72.0335 68.6385C69.832 66.9843 67.2167 65.9697 64.4756 65.7064C61.7345 65.443 58.9739 65.9412 56.4977 67.1461L55.4942 67.6539C53.7654 68.4949 51.8698 68.9369 49.9474 68.9471H40.2147C38.8229 68.9443 37.4727 69.4211 36.3913 70.2973C35.3098 71.1734 34.5633 72.3954 34.2772 73.7574L41.2282 73.4321C43.7844 73.3151 46.346 73.4304 48.8813 73.7766C49.1885 73.8156 49.4687 73.9721 49.663 74.2132C49.8573 74.4543 49.9508 74.7613 49.9237 75.0697C49.9064 75.2252 49.858 75.3757 49.7816 75.5122C49.7051 75.6487 49.602 75.7684 49.4785 75.8644C49.3549 75.9604 49.2133 76.0306 49.0622 76.071C48.911 76.1113 48.7533 76.1209 48.5983 76.0992C46.1922 75.7666 43.7607 75.6541 41.3341 75.7631L33.0333 76.1383C33.0155 76.1383 32.9979 76.1395 32.9802 76.1395C32.8252 76.14 32.6716 76.1096 32.5285 76.0502C32.3854 75.9907 32.2555 75.9034 32.1464 75.7933C32.0374 75.6832 31.9513 75.5525 31.8933 75.4088C31.8352 75.2651 31.8063 75.1112 31.8083 74.9563C31.8083 74.8 31.814 74.6438 31.8228 74.4887L18.7052 67.4252C17.8113 66.9412 16.7844 66.761 15.7792 66.9118C14.774 67.0625 13.845 67.5361 13.1325 68.261L36.914 84.5887Z" fill="#052D5E"/>
<path id="Vector_3" d="M82.302 73.343C81.9968 73.2843 81.7275 73.1067 81.5532 72.8493C81.379 72.592 81.3141 72.276 81.3729 71.9708L81.4705 71.4595C81.4984 71.3072 81.5561 71.1619 81.6405 71.0321C81.7248 70.9022 81.834 70.7904 81.9618 70.703C82.0896 70.6156 82.2334 70.5544 82.385 70.5229C82.5365 70.4914 82.6929 70.4903 82.8449 70.5196C82.9969 70.5488 83.1416 70.6079 83.2707 70.6935C83.3997 70.779 83.5105 70.8892 83.5967 71.0178C83.6829 71.1464 83.7428 71.2908 83.7729 71.4427C83.8029 71.5946 83.8026 71.7509 83.7719 71.9026L83.6743 72.4137C83.6229 72.681 83.48 72.9221 83.2703 73.0955C83.0606 73.269 82.797 73.364 82.5248 73.3643C82.45 73.3642 82.3754 73.3571 82.302 73.343ZM82.0201 74.8065C82.1713 74.8356 82.3152 74.8942 82.4437 74.9789C82.5722 75.0636 82.6827 75.1728 82.769 75.3002C82.8553 75.4276 82.9157 75.5708 82.9466 75.7215C82.9776 75.8723 82.9785 76.0277 82.9494 76.1788L81.1828 85.353C81.1314 85.6203 80.9886 85.8613 80.7789 86.0348C80.5692 86.2082 80.3056 86.3033 80.0334 86.3036C79.9586 86.3035 79.884 86.2964 79.8106 86.2823C79.5054 86.2235 79.2361 86.0459 79.0618 85.7886C78.8876 85.5312 78.8227 85.2152 78.8815 84.91L80.6479 75.7358C80.677 75.5847 80.7355 75.4408 80.8202 75.3123C80.9049 75.1838 81.0141 75.0732 81.1415 74.987C81.269 74.9007 81.4122 74.8403 81.5629 74.8094C81.7137 74.7784 81.869 74.7774 82.0201 74.8065Z" fill="#096E49"/>
</g>
</g>
</g>
</svg>
