<svg width="172" height="133" viewBox="0 0 172 133" fill="none" xmlns="http://www.w3.org/2000/svg">
<g id="featureCard__icon">
<path id="Vector" d="M164.004 95.043C164.183 94.522 164.2 93.9587 164.051 93.4281C163.902 92.8976 163.594 92.4251 163.17 92.0738C159.082 88.6944 153.222 87.1547 145.755 87.4956C142.427 87.6458 139.125 88.143 135.9 88.9791L136.808 92.1935C136.965 92.1497 152.282 87.9414 160.655 94.3368C160.474 94.6313 160.276 94.9146 160.061 95.1854C151.297 90.8964 139.861 92.83 139.356 92.9185L139.934 96.208C140.042 96.189 150.008 94.4997 157.71 97.7805C156.621 98.8524 155.476 99.8648 154.279 100.813C148.993 96.6546 140.218 96.4309 139.82 96.423L139.753 99.7622C139.834 99.764 146.952 99.9548 151.428 102.872C150.785 103.292 150.128 103.688 149.456 104.059C148.88 104.374 148.423 104.869 148.153 105.468C147.884 106.067 147.817 106.738 147.964 107.378C148.064 107.851 148.122 108.331 148.138 108.813C144.625 106.814 141.718 103.903 139.722 100.388L136.737 101.885C138.936 105.873 142.169 109.196 146.096 111.503C146.674 111.837 147.283 112.15 147.918 112.443C147.707 113.806 147.384 115.149 146.953 116.458C140.092 111.219 136.722 102.613 136.686 102.519L133.567 103.713C133.733 104.146 137.538 113.908 145.682 119.668C145.426 120.218 145.154 120.759 144.866 121.292C130.667 112.082 130.143 101.883 130.139 101.779L128.471 101.828L126.801 101.867C126.812 102.363 127.316 114.177 143.698 124.507C144.319 124.865 145.052 124.975 145.75 124.816C146.103 124.728 146.434 124.568 146.724 124.349C147.014 124.129 147.256 123.853 147.437 123.537C149.3 120.33 150.571 116.813 151.189 113.155C151.566 110.805 151.594 108.486 151.271 106.873C157.05 103.631 163.073 97.7007 164.004 95.043ZM106.127 59.2794C105.792 58.6413 105.645 55.9156 106.228 52.2634C107.13 46.6141 104.133 43.46 103.495 42.8608C97.1687 35.8239 80.2976 43.7848 78.3891 44.7176L79.8557 47.7182C82.8275 46.3241 85.914 45.189 89.0809 44.3256C96.6434 42.3347 100.009 43.8623 101.294 45.3293C101.324 45.3636 101.302 45.3443 101.286 45.3284C93.26 44.0962 83.4916 48.2193 83.0125 48.4239L84.3244 51.4953C86.6791 50.547 89.1076 49.7938 91.5857 49.2433C96.2853 48.2066 100.2 48.2008 102.994 49.2078C103.063 49.7816 103.074 50.3609 103.027 50.9369C96.1912 49.1303 88.1433 52.1891 87.7703 52.3336L88.9759 55.4481C89.0581 55.4161 96.7733 52.4798 102.604 54.2871C102.536 55.0192 102.5 55.682 102.489 56.2845C97.0737 54.8912 93.439 57.3045 93.2658 57.4228L95.1487 60.1812C95.827 59.79 96.567 59.5173 97.337 59.3749C99.1887 59.0188 101.104 59.201 102.855 59.8997C102.93 60.1703 103.025 60.4349 103.139 60.6915L99.3959 62.0857L100.562 65.2158L105.337 63.4366C105.736 63.2883 106.09 63.0396 106.365 62.7145C106.64 62.3893 106.826 61.9988 106.906 61.5806C106.986 61.1625 106.956 60.7309 106.82 60.3275C106.684 59.9241 106.446 59.5626 106.13 59.2779L106.127 59.2794ZM88.6204 87.0749L86.2606 83.1413L83.3975 84.8593L85.7578 88.7936C86.0024 89.1994 86.1217 89.6683 86.1009 90.1417C86.0801 90.615 85.92 91.0717 85.6407 91.4545C85.275 91.9461 84.7378 92.2822 84.1358 92.3962C83.5338 92.5102 82.9109 92.3937 82.3908 92.0698C75.2985 87.6947 75.374 78.8324 75.3753 78.7433L72.0362 78.6713C72.0263 79.1113 71.9629 89.5599 80.71 94.9555C81.9504 95.6729 83.41 95.9128 84.8147 95.6304C86.2195 95.3479 87.4729 94.5625 88.3396 93.4215C89.0059 92.5087 89.388 91.4196 89.4379 90.2906C89.4879 89.1616 89.2035 88.043 88.6204 87.0749ZM122.314 99.5243C122.058 102.574 121.101 104.853 119.831 106.556C118.491 105.276 117.442 103.724 116.753 102.004C116.064 100.284 115.752 98.4359 115.837 96.585L112.514 96.2412C112.381 98.5853 112.755 100.931 113.609 103.118C114.464 105.304 115.779 107.282 117.466 108.915C116.828 109.389 116.147 109.802 115.433 110.151C108.615 104.509 108.257 93.4637 108.254 93.3488L106.586 93.3886L104.915 93.4264C104.925 93.8768 105.194 102.652 110.129 109.347C101.047 102.522 103.056 92.0964 103.151 91.6369L99.8829 90.9514C99.4307 93.6089 99.4645 96.3263 99.9828 98.9717C100.759 103.084 103.196 108.945 109.747 113.141C110.661 113.671 111.683 113.991 112.736 114.075C113.79 114.16 114.849 114.008 115.836 113.63C119.181 112.261 124.902 108.645 125.643 99.8029L122.314 99.5243ZM131.795 77.9159C124.273 73.3397 116.135 75.1 115.791 75.1764L116.519 78.4357C116.591 78.42 123.73 76.9124 130.055 80.767C130.178 80.8424 130.27 80.9593 130.314 81.0966C130.357 81.2338 130.35 81.3822 130.294 81.5148L128.328 86.0509L131.393 87.3787L133.358 82.8423C133.732 81.9702 133.78 80.9928 133.493 80.0883C133.206 79.1839 132.603 78.4128 131.795 77.9159Z" fill="#096E49"/>
<path id="Vector_2" d="M28.4728 38.8727C30.0985 39.8083 32.1742 39.25 33.1089 37.6257C34.0436 36.0014 33.4835 33.9262 31.8577 32.9906C30.232 32.0551 28.1563 32.6134 27.2216 34.2377C26.2868 35.862 26.847 37.9372 28.4728 38.8727Z" fill="#052D5E"/>
<path id="Vector_3" d="M69.4154 43.4458C68.9007 43.1491 68.3097 43.0117 67.7169 43.0509C67.1242 43.0901 66.5564 43.3042 66.0853 43.6661C65.6142 44.0279 65.261 44.5214 65.0703 45.084C64.8796 45.6466 64.86 46.2531 65.014 46.8268C65.168 47.4005 65.4886 47.9157 65.9353 48.3073C66.3821 48.6988 66.9349 48.9491 67.5238 49.0265C68.1128 49.1039 68.7115 49.0049 69.2442 48.7421C69.777 48.4792 70.2198 48.0643 70.5168 47.5499C70.9141 46.8594 71.0213 46.0395 70.8148 45.2701C70.6083 44.5007 70.105 43.8446 69.4154 43.4458ZM67.7455 46.3382C67.6875 46.3053 67.6407 46.2559 67.6109 46.1964C67.581 46.1368 67.5696 46.0697 67.5779 46.0036C67.5863 45.9375 67.6141 45.8754 67.6578 45.8251C67.7015 45.7748 67.7591 45.7387 67.8234 45.7212C67.8877 45.7037 67.9557 45.7058 68.0189 45.727C68.082 45.7483 68.1374 45.7878 68.178 45.8406C68.2187 45.8933 68.2428 45.957 68.2472 46.0235C68.2516 46.0899 68.2362 46.1562 68.2029 46.2139C68.1811 46.2522 68.152 46.2859 68.1172 46.3129C68.0823 46.3399 68.0425 46.3597 68 46.3713C67.9575 46.3828 67.9131 46.3858 67.8694 46.3802C67.8257 46.3745 67.7836 46.3602 67.7455 46.3382ZM51.964 44.4516C52.4786 44.7482 53.0697 44.8856 53.6624 44.8465C54.2551 44.8073 54.8229 44.5932 55.294 44.2313C55.7651 43.8695 56.1183 43.3761 56.309 42.8135C56.4997 42.2509 56.5193 41.6444 56.3654 41.0707C56.2115 40.497 55.8909 39.9818 55.4442 39.5902C54.9975 39.1987 54.4447 38.9484 53.8558 38.8709C53.2668 38.7935 52.6681 38.8924 52.1354 39.1552C51.6026 39.418 51.1598 39.8328 50.8628 40.3472C50.4654 41.0377 50.3582 41.8576 50.5647 42.6271C50.7711 43.3965 51.2744 44.0527 51.964 44.4516ZM53.6339 41.5592C53.6918 41.5921 53.7387 41.6415 53.7685 41.701C53.7983 41.7606 53.8098 41.8277 53.8014 41.8938C53.7931 41.9599 53.7652 42.0221 53.7215 42.0723C53.6778 42.1226 53.6201 42.1588 53.5558 42.1762C53.4915 42.1936 53.4234 42.1916 53.3603 42.1703C53.2972 42.149 53.2418 42.1094 53.2011 42.0566C53.1605 42.0038 53.1365 41.9401 53.1322 41.8736C53.1278 41.8071 53.1433 41.7408 53.1767 41.6832C53.1984 41.6449 53.2276 41.6113 53.2624 41.5844C53.2972 41.5574 53.337 41.5376 53.3795 41.5261C53.422 41.5145 53.4663 41.5115 53.51 41.5172C53.5537 41.5229 53.5958 41.5372 53.6339 41.5592ZM75.4905 54.2629C74.9759 53.9663 74.3848 53.8289 73.7921 53.868C73.1994 53.9072 72.6316 54.1213 72.1605 54.4832C71.6894 54.845 71.3362 55.3384 71.1455 55.901C70.9548 56.4636 70.9352 57.0701 71.0891 57.6438C71.243 58.2175 71.5636 58.7327 72.0103 59.1243C72.457 59.5158 73.0098 59.7661 73.5987 59.8436C74.1877 59.921 74.7864 59.8221 75.3191 59.5593C75.8519 59.2966 76.2947 58.8817 76.5917 58.3673C76.989 57.6768 77.0961 56.8569 76.8897 56.0874C76.6833 55.318 76.1801 54.6619 75.4905 54.2629ZM73.8206 57.1553C73.7627 57.1224 73.7158 57.073 73.686 57.0135C73.6562 56.9539 73.6447 56.8868 73.6531 56.8207C73.6614 56.7546 73.6893 56.6924 73.733 56.6422C73.7767 56.5919 73.8344 56.5557 73.8987 56.5383C73.963 56.5209 74.0311 56.5229 74.0942 56.5442C74.1573 56.5655 74.2127 56.6051 74.2533 56.6579C74.294 56.7107 74.318 56.7744 74.3223 56.8409C74.3267 56.9074 74.3112 56.9737 74.2778 57.0313C74.256 57.0696 74.2269 57.1032 74.1921 57.1301C74.1573 57.1571 74.1175 57.1769 74.075 57.1884C74.0325 57.2 73.9882 57.203 73.9445 57.1973C73.9008 57.1916 73.8587 57.1773 73.8206 57.1553ZM89.5662 58.3367C89.0515 58.04 88.4605 57.9026 87.8677 57.9418C87.275 57.981 86.7072 58.1951 86.2361 58.557C85.765 58.9188 85.4118 59.4123 85.2211 59.9749C85.0304 60.5375 85.0108 61.144 85.1648 61.7177C85.3187 62.2914 85.6394 62.8066 86.0861 63.1982C86.5329 63.5897 87.0857 63.84 87.6746 63.9174C88.2636 63.9948 88.8623 63.8958 89.395 63.633C89.9277 63.3701 90.3706 62.9552 90.6675 62.4408C91.0648 61.7503 91.1719 60.9304 90.9654 60.161C90.759 59.3916 90.2557 58.7355 89.5662 58.3367ZM87.8962 61.2291C87.8383 61.1962 87.7915 61.1468 87.7616 61.0872C87.7318 61.0277 87.7203 60.9606 87.7287 60.8945C87.737 60.8284 87.7648 60.7663 87.8085 60.716C87.8522 60.6657 87.9099 60.6296 87.9742 60.6121C88.0385 60.5946 88.1065 60.5967 88.1696 60.6179C88.2328 60.6392 88.2882 60.6787 88.3288 60.7315C88.3695 60.7842 88.3935 60.8479 88.3979 60.9144C88.4024 60.9808 88.3869 61.0471 88.3536 61.1048C88.3319 61.1431 88.3027 61.1767 88.2679 61.2037C88.2331 61.2307 88.1933 61.2506 88.1508 61.2622C88.1083 61.2737 88.0639 61.2767 88.0202 61.2711C87.9765 61.2654 87.9344 61.2511 87.8962 61.2291ZM98.8233 69.6963C98.3086 69.3996 97.7176 69.2622 97.1249 69.3014C96.5321 69.3406 95.9643 69.5547 95.4933 69.9165C95.0222 70.2784 94.6689 70.7718 94.4782 71.3343C94.2875 71.8969 94.2679 72.5034 94.4218 73.0771C94.5758 73.6509 94.8964 74.1661 95.3431 74.5576C95.7898 74.9492 96.3425 75.1995 96.9315 75.2769C97.5204 75.3544 98.1191 75.2555 98.6519 74.9927C99.1846 74.7299 99.6275 74.3151 99.9245 73.8007C100.322 73.1101 100.429 72.2902 100.223 71.5208C100.016 70.7513 99.5129 70.0952 98.8233 69.6963ZM97.1533 72.5887C97.0954 72.5558 97.0486 72.5064 97.0187 72.4468C96.9889 72.3872 96.9775 72.3201 96.9858 72.254C96.9942 72.1879 97.022 72.1258 97.0657 72.0755C97.1095 72.0253 97.1672 71.9891 97.2315 71.9717C97.2958 71.9542 97.3638 71.9563 97.4269 71.9776C97.4901 71.9989 97.5455 72.0384 97.5861 72.0913C97.6267 72.1441 97.6507 72.2078 97.6551 72.2743C97.6594 72.3408 97.6439 72.407 97.6106 72.4647C97.5888 72.503 97.5597 72.5366 97.5248 72.5635C97.49 72.5905 97.4502 72.6103 97.4078 72.6218C97.3653 72.6333 97.3209 72.6363 97.2772 72.6306C97.2336 72.625 97.1915 72.6107 97.1533 72.5887ZM111.439 80.0572C110.924 79.7605 110.333 79.6231 109.741 79.6623C109.148 79.7015 108.58 79.9156 108.109 80.2774C107.638 80.6393 107.285 81.1327 107.094 81.6953C106.903 82.2579 106.884 82.8644 107.038 83.4382C107.192 84.0119 107.512 84.5271 107.959 84.9186C108.406 85.3102 108.959 85.5605 109.548 85.6378C110.137 85.7152 110.735 85.6163 111.268 85.3534C111.801 85.0906 112.244 84.6757 112.54 84.1612C112.938 83.4707 113.045 82.6508 112.839 81.8814C112.632 81.112 112.129 80.456 111.439 80.0572ZM109.769 82.9496C109.711 82.9167 109.664 82.8673 109.635 82.8077C109.605 82.7482 109.593 82.6811 109.602 82.615C109.61 82.5489 109.638 82.4868 109.681 82.4365C109.725 82.3862 109.783 82.3501 109.847 82.3326C109.911 82.3151 109.979 82.3171 110.043 82.3384C110.106 82.3596 110.161 82.3992 110.202 82.4519C110.242 82.5047 110.266 82.5684 110.271 82.6348C110.275 82.7013 110.26 82.7676 110.227 82.8253C110.205 82.8636 110.176 82.8972 110.141 82.9242C110.106 82.9512 110.066 82.9711 110.024 82.9826C109.981 82.9942 109.937 82.9972 109.893 82.9915C109.849 82.9859 109.807 82.9716 109.769 82.9496Z" fill="#052D5E"/>
<path id="Vector_4" d="M137.137 89.1144C125.281 82.8031 108.622 68.7684 93.9262 56.3862C89.0668 52.2926 84.4781 48.4247 80.1754 44.9239C62.7158 30.7114 27.9501 27.8337 17.7107 27.2906C16.6983 27.234 15.6901 27.46 14.7988 27.9434C13.9075 28.4267 13.1681 29.1484 12.6633 30.0278C12.1963 30.8442 11.9451 31.7662 11.9337 32.7067C11.9223 33.6471 12.151 34.575 12.5981 35.4024C14.2961 38.5337 16.3957 41.4298 18.8436 44.0175C21.7232 46.9994 24.7888 49.0473 27.9924 50.1334C29.491 52.1821 35.7835 59.5421 55.5339 70.945C68.2474 78.2851 86.5386 87.3006 112.715 97.6515C114.505 98.349 116.342 98.9198 118.212 99.3597C120.378 99.8838 124.852 101.674 128.883 103.962C129.931 104.558 131.094 104.926 132.294 105.043C133.494 105.16 134.706 105.023 135.85 104.641C137.419 104.111 138.798 103.134 139.819 101.83C140.839 100.526 141.456 98.9515 141.593 97.3013C141.73 95.6512 141.381 93.997 140.59 92.5425C139.798 91.088 138.599 89.8968 137.139 89.1156L137.137 89.1144ZM121.646 85.0474C121.704 85.0803 121.751 85.1297 121.781 85.1893C121.81 85.2488 121.822 85.3159 121.814 85.382C121.805 85.4481 121.777 85.5102 121.734 85.5605C121.69 85.6108 121.632 85.647 121.568 85.6644C121.504 85.6819 121.436 85.6799 121.373 85.6586C121.31 85.6374 121.254 85.5978 121.213 85.5451C121.173 85.4923 121.149 85.4286 121.144 85.3622C121.14 85.2957 121.155 85.2294 121.189 85.1717C121.21 85.1334 121.24 85.0998 121.274 85.0728C121.309 85.0458 121.349 85.0259 121.391 85.0144C121.434 85.0028 121.478 84.9998 121.522 85.0055C121.566 85.0111 121.608 85.0254 121.646 85.0474ZM17.0184 36.3008C18.2864 36.8408 19.6106 37.238 20.9665 37.485C21.4021 37.5648 21.8516 37.4683 22.2161 37.2167C22.5806 36.9651 22.8303 36.579 22.9101 36.1434C22.99 35.7078 22.8935 35.2582 22.6419 34.8937C22.3903 34.5292 22.0042 34.2796 21.5686 34.1997C19.4053 33.8197 17.3565 32.9539 15.5762 31.6676C15.7764 31.3317 16.0647 31.057 16.4098 30.8734C16.7549 30.6897 17.1438 30.604 17.5342 30.6256C26.3092 31.1154 35.041 32.1993 43.6694 33.8699C45.4407 37.2813 45.4185 40.7216 43.5802 43.398C41.2379 46.8077 36.5246 48.3872 31.2774 47.5243C24.6268 46.4289 19.7055 40.4665 17.0184 36.3008ZM134.786 101.475C134.087 101.708 133.347 101.791 132.614 101.719C131.881 101.647 131.171 101.421 130.531 101.057C126.189 98.5926 121.442 96.7045 118.997 96.1133C117.278 95.7097 115.589 95.1858 113.943 94.5454C93.3784 86.4131 64.755 73.9105 45.1775 60.5202C39.2097 56.4392 35.5161 53.2454 33.3237 51.0838C38.8206 51.2879 43.6615 49.178 46.3327 45.2895C48.4529 42.2031 48.8882 38.4734 47.6455 34.7116C61.1346 37.7533 71.3608 42.0558 78.0667 47.5148C82.3467 50.9989 86.9258 54.8567 91.7739 58.9411C101.215 66.8959 111.46 75.5243 120.798 82.4169C120.236 82.5467 119.722 82.8359 119.32 83.2498C118.917 83.6636 118.642 84.1847 118.528 84.7507C118.414 85.3167 118.465 85.9036 118.675 86.4413C118.886 86.979 119.246 87.4447 119.715 87.7827C120.183 88.1208 120.738 88.3168 121.315 88.3474C121.892 88.3781 122.465 88.242 122.966 87.9554C123.467 87.6689 123.875 87.244 124.142 86.7316C124.408 86.2192 124.521 85.641 124.467 85.0661C128.022 87.6211 131.729 89.9578 135.568 92.0631C136.697 92.678 137.557 93.6905 137.981 94.9038C138.406 96.1172 138.364 97.4451 137.865 98.6296C137.583 99.2951 137.163 99.893 136.632 100.384C136.101 100.874 135.472 101.246 134.786 101.475Z" fill="#052D5E"/>
<path id="Vector_5" d="M59.3597 52.61C56.7495 48.1975 50.6809 47.7 42.6975 51.2488C42.3003 51.4256 41.9562 51.703 41.6992 52.0536C41.4422 52.4042 41.2813 52.8159 41.2323 53.2479C41.1834 53.6798 41.2481 54.1171 41.4201 54.5163C41.5921 54.9155 41.8654 55.2629 42.213 55.5241L47.8141 59.7432C48.0125 59.8926 48.232 60.0117 48.4653 60.0968C54.9516 62.4607 58.7659 62.5506 60.4694 60.3795C62.5364 57.7453 59.9747 53.5393 59.3597 52.61ZM49.7244 57.0008L45.3998 53.743C48.5382 52.53 54.4638 50.8366 56.5 54.3361C56.5167 54.3647 56.5354 54.3951 56.5538 54.422C57.7088 56.1621 58.1257 57.9577 57.8419 58.3183C57.8318 58.331 56.6535 59.5076 49.7244 57.0008Z" fill="#052D5E"/>
</g>
</svg>
