<svg width="123" height="111" viewBox="0 0 123 111" fill="none" xmlns="http://www.w3.org/2000/svg">
<g id="featureCard__icon">
<g id="Group">
<g id="Group_2">
<path id="Vector" d="M49.9426 44.5165V51.2606C49.9426 54.3259 51.1603 57.2655 53.3277 59.433C55.4952 61.6004 58.4348 62.8181 61.5001 62.8181C64.5653 62.8181 67.505 61.6004 69.6724 59.433C71.8398 57.2655 73.0575 54.3259 73.0575 51.2606V44.5165C73.0575 41.4513 71.8398 38.5116 69.6724 36.3442C67.505 34.1768 64.5653 32.9591 61.5001 32.9591C58.4348 32.9591 55.4952 34.1768 53.3277 36.3442C51.1603 38.5116 49.9426 41.4513 49.9426 44.5165ZM70.1747 44.5165V51.2606C70.1747 53.5613 69.2608 55.7677 67.6339 57.3945C66.0071 59.0213 63.8007 59.9353 61.5001 59.9353C59.1994 59.9353 56.993 59.0213 55.3662 57.3945C53.7394 55.7677 52.8254 53.5613 52.8254 51.2606V44.5165C52.8254 42.2159 53.7394 40.0095 55.3662 38.3827C56.993 36.7558 59.1994 35.8419 61.5001 35.8419C63.8007 35.8419 66.0071 36.7558 67.6339 38.3827C69.2608 40.0095 70.1747 42.2159 70.1747 44.5165ZM97.3671 38.674C94.5467 38.6772 91.8428 39.799 89.8485 41.7933C87.8542 43.7876 86.7324 46.4915 86.7292 49.3119V55.4426C86.7292 58.264 87.85 60.9697 89.845 62.9647C91.84 64.9597 94.5457 66.0805 97.3671 66.0805C100.188 66.0805 102.894 64.9597 104.889 62.9647C106.884 60.9697 108.005 58.264 108.005 55.4426V49.3119C108.002 46.4915 106.88 43.7876 104.886 41.7933C102.891 39.799 100.187 38.6772 97.3671 38.674ZM105.122 55.4424C105.122 57.4992 104.305 59.4717 102.851 60.926C101.396 62.3804 99.4238 63.1974 97.3671 63.1974C95.3103 63.1974 93.3378 62.3804 91.8834 60.926C90.4291 59.4717 89.612 57.4992 89.612 55.4424V49.3116C89.612 47.2549 90.4291 45.2823 91.8834 43.828C93.3378 42.3737 95.3103 41.5566 97.3671 41.5566C99.4238 41.5566 101.396 42.3737 102.851 43.828C104.305 45.2823 105.122 47.2549 105.122 49.3116V55.4424Z" fill="#052D5E"/>
<path id="Vector_2" d="M109.628 68.2339H105.753C105.405 68.2335 105.073 68.0954 104.827 67.8499C104.581 67.6045 104.443 67.2716 104.443 66.9244C104.443 66.585 104.323 66.2565 104.104 65.9968C103.886 65.7371 103.583 65.5629 103.248 65.5047C102.914 65.4465 102.57 65.5082 102.277 65.6789C101.983 65.8495 101.76 66.1183 101.645 66.4377L100.104 70.7321C99.9016 71.2947 99.53 71.7807 99.0401 72.123C98.5502 72.4653 97.9661 72.6471 97.3684 72.6433C96.7707 72.6394 96.189 72.4501 95.7035 72.1015C95.218 71.7529 94.8527 71.2621 94.6581 70.697L93.1843 66.4208C93.1046 66.1898 92.9675 65.9827 92.7858 65.8192C92.604 65.6557 92.3837 65.5411 92.1456 65.4861C91.9074 65.4312 91.6591 65.4377 91.4241 65.5051C91.1892 65.5725 90.9752 65.6986 90.8023 65.8714L90.7675 65.906C90.4973 66.1763 90.3454 66.5429 90.3454 66.9251C90.345 67.2723 90.2068 67.6052 89.9613 67.8507C89.7158 68.0962 89.3829 68.2342 89.0357 68.2346H85.1042C84.482 68.2347 83.8606 68.2821 83.2455 68.3764C80.904 66.4969 77.9907 65.4735 74.9882 65.4755H70.725C70.3045 65.4755 69.9012 65.3085 69.6039 65.0111C69.3065 64.7138 69.1395 64.3105 69.1395 63.89C69.1394 63.5506 69.0195 63.2221 68.801 62.9624C68.5826 62.7027 68.2794 62.5285 67.9451 62.4703C67.6107 62.4121 67.2666 62.4738 66.9732 62.6445C66.6799 62.8151 66.4561 63.0838 66.3414 63.4033L64.6471 68.1275C64.4149 68.7743 63.9876 69.3332 63.4242 69.7268C62.8608 70.1205 62.1892 70.3295 61.5019 70.3251C60.8146 70.3207 60.1457 70.1031 59.5874 69.7023C59.0291 69.3014 58.609 68.7371 58.3851 68.0874L56.7638 63.3824C56.6841 63.1511 56.5468 62.944 56.3649 62.7804C56.1831 62.6169 55.9626 62.5023 55.7242 62.4475C55.4859 62.3926 55.2375 62.3993 55.0024 62.467C54.7674 62.5346 54.5534 62.661 54.3807 62.8341L54.3425 62.8723C54.0729 63.1425 53.9216 63.5086 53.9216 63.8902C53.9216 64.3107 53.7545 64.714 53.4572 65.0114C53.1598 65.3087 52.7565 65.4758 52.336 65.4758H48.0118C45.0086 65.4736 42.0948 66.4974 39.753 68.3776C39.1385 68.2829 38.5176 68.2351 37.8958 68.2346H34.0201C33.6729 68.2342 33.34 68.0962 33.0944 67.8507C32.8489 67.6052 32.7108 67.2723 32.7103 66.9251C32.7102 66.5857 32.5904 66.2573 32.3719 65.9976C32.1534 65.7379 31.8503 65.5636 31.5159 65.5054C31.1816 65.4473 30.8374 65.5089 30.5441 65.6796C30.2507 65.8503 30.027 66.119 29.9123 66.4384L28.3717 70.7321C28.1697 71.2946 27.7981 71.7806 27.3082 72.1229C26.8182 72.4652 26.2341 72.647 25.6364 72.6431C25.0388 72.6393 24.457 72.45 23.9715 72.1014C23.486 71.7528 23.1207 71.2621 22.926 70.697L21.4522 66.4208C21.3725 66.1897 21.2354 65.9826 21.0536 65.819C20.8719 65.6555 20.6515 65.5408 20.4132 65.4859C20.175 65.431 19.9266 65.4376 19.6916 65.5051C19.4566 65.5725 19.2426 65.6987 19.0698 65.8717L19.0352 65.9063C18.7651 66.1765 18.6134 66.543 18.6134 66.9251C18.613 67.2723 18.4749 67.6051 18.2294 67.8506C17.9839 68.0961 17.651 68.2342 17.3038 68.2346H13.3719C10.1453 68.2383 7.05187 69.5217 4.77023 71.8032C2.48859 74.0847 1.20505 77.178 1.20117 80.4047V97.2648C1.20117 97.6471 1.35303 98.0137 1.62335 98.284C1.89367 98.5543 2.26029 98.7062 2.64258 98.7062H120.357C120.74 98.7062 121.106 98.5543 121.377 98.284C121.647 98.0137 121.799 97.6471 121.799 97.2648V80.4047C121.795 77.1779 120.512 74.0844 118.23 71.8027C115.949 69.5211 112.855 68.2376 109.628 68.2339ZM34.7684 78.7187V95.8234H4.08398V80.4047C4.08678 77.9422 5.06623 75.5814 6.80745 73.8402C8.54867 72.099 10.9095 71.1195 13.3719 71.1167H17.3034C18.1813 71.1179 19.0373 70.842 19.7492 70.3283L20.2001 71.6373C20.5894 72.7667 21.3196 73.7474 22.29 74.444C23.2605 75.1406 24.4232 75.5188 25.6178 75.5264C26.8123 75.534 27.9798 75.1706 28.959 74.4864C29.9382 73.8021 30.6808 72.8308 31.0844 71.7065L31.5781 70.3311C32.2517 70.8163 33.0547 71.0894 33.8843 71.1155C33.9105 71.1155 33.9372 71.1174 33.9639 71.1174H37.1768C35.6076 73.3414 34.7662 75.9969 34.7684 78.7187ZM85.3488 95.8234H37.6512V78.7187C37.6544 75.9719 38.747 73.3385 40.6893 71.3962C42.6316 69.454 45.265 68.3615 48.0118 68.3583H52.336C53.3386 68.3595 54.3122 68.0218 55.0987 67.4L55.6592 69.0272C56.0776 70.2413 56.8626 71.2957 57.9058 72.0446C58.949 72.7936 60.199 73.2002 61.4832 73.2084C62.7674 73.2166 64.0225 72.8259 65.0752 72.0903C66.1279 71.3546 66.9262 70.3104 67.36 69.1016L67.969 67.4046C68.7159 67.9931 69.6319 68.3265 70.5823 68.3559C70.6092 68.3576 70.6364 68.3583 70.6635 68.3583H74.9877C77.7346 68.3615 80.3681 69.454 82.3104 71.3964C84.2527 73.3388 85.3453 75.9723 85.3483 78.7192L85.3488 95.8234ZM118.916 95.8234H88.2316V78.7187C88.2338 75.9966 87.3922 73.3408 85.8228 71.1167H89.0357C89.9135 71.1179 90.7694 70.842 91.4812 70.3283L91.9322 71.6373C92.3214 72.7667 93.0517 73.7474 94.0221 74.444C94.9925 75.1406 96.1553 75.5188 97.3498 75.5264C98.5444 75.534 99.7118 75.1706 100.691 74.4864C101.67 73.8021 102.413 72.8308 102.816 71.7065L103.31 70.3311C103.984 70.8163 104.787 71.0894 105.616 71.1155C105.643 71.1155 105.669 71.1174 105.696 71.1174H109.627C112.09 71.12 114.451 72.0993 116.192 73.8404C117.933 75.5815 118.913 77.9422 118.916 80.4047V95.8234Z" fill="#052D5E"/>
<path id="Vector_3" d="M14.9958 49.3119V55.4427C14.9958 56.8396 15.271 58.223 15.8056 59.5136C16.3402 60.8042 17.1238 61.9769 18.1116 62.9647C19.0994 63.9526 20.2721 64.7361 21.5628 65.2707C22.8534 65.8053 24.2367 66.0805 25.6337 66.0805C27.0306 66.0805 28.4139 65.8053 29.7046 65.2707C30.9952 64.7361 32.1679 63.9526 33.1557 62.9647C34.1436 61.9769 34.9271 60.8042 35.4617 59.5136C35.9963 58.223 36.2715 56.8396 36.2715 55.4427V49.3119C36.2715 46.4906 35.1507 43.7848 33.1557 41.7898C31.1608 39.7948 28.455 38.6741 25.6337 38.6741C22.8123 38.6741 20.1066 39.7948 18.1116 41.7898C16.1166 43.7848 14.9958 46.4906 14.9958 49.3119ZM33.3887 49.3119V55.4427C33.3887 57.4994 32.5716 59.4719 31.1173 60.9263C29.6629 62.3806 27.6904 63.1977 25.6337 63.1977C23.5769 63.1977 21.6044 62.3806 20.1501 60.9263C18.6957 59.4719 17.8787 57.4994 17.8787 55.4427V49.3119C17.8787 47.2551 18.6957 45.2826 20.1501 43.8283C21.6044 42.3739 23.5769 41.5569 25.6337 41.5569C27.6904 41.5569 29.6629 42.3739 31.1173 43.8283C32.5716 45.2826 33.3887 47.2551 33.3887 49.3119Z" fill="#052D5E"/>
</g>
<path id="Vector_4" d="M74.3305 9.57996L66.2951 8.39272L62.718 1.10017C62.5995 0.858735 62.4159 0.655259 62.1878 0.512742C61.9598 0.370225 61.6964 0.294352 61.4275 0.293701H61.4239C61.1555 0.293709 60.8924 0.368643 60.6644 0.510065C60.4363 0.651486 60.2522 0.853779 60.1329 1.09416L56.5207 8.36894L48.4793 9.5175C48.2131 9.55554 47.9628 9.6673 47.7567 9.84017C47.5507 10.013 47.3971 10.2401 47.3134 10.4957C47.2297 10.7513 47.2191 11.0252 47.2829 11.2865C47.3467 11.5477 47.4824 11.7859 47.6745 11.9741L53.4772 17.6578L52.0838 25.6603C52.0378 25.9252 52.0668 26.1978 52.1675 26.4471C52.2683 26.6964 52.4368 26.9126 52.6539 27.0712C52.8711 27.2297 53.1283 27.3244 53.3965 27.3444C53.6647 27.3645 53.9331 27.3091 54.1714 27.1846L61.3701 23.4223L68.5504 27.2194C68.7881 27.3451 69.0562 27.4017 69.3244 27.383C69.5926 27.3643 69.8502 27.271 70.0681 27.1135C70.2861 26.9561 70.4556 26.7409 70.5577 26.4921C70.6597 26.2434 70.6901 25.9711 70.6455 25.7059L69.2918 17.697L75.1218 12.0414C75.3148 11.8541 75.4516 11.6166 75.5167 11.3557C75.5818 11.0947 75.5726 10.8208 75.4901 10.5648C75.4076 10.3088 75.2552 10.081 75.05 9.90712C74.8448 9.73326 74.5951 9.62027 74.329 9.58092L74.3305 9.57996ZM66.7419 16.1554C66.5742 16.3182 66.4485 16.5192 66.3758 16.7413C66.3031 16.9634 66.2854 17.1999 66.3244 17.4303L67.3178 23.3067L62.0492 20.52C61.8426 20.4108 61.6125 20.3534 61.3788 20.3529C61.1452 20.3523 60.9148 20.4086 60.7077 20.5169L55.4259 23.2772L56.4477 17.4056C56.4877 17.1754 56.4711 16.9389 56.3994 16.7165C56.3277 16.4941 56.2031 16.2925 56.0361 16.129L51.7787 11.9585L57.6784 11.116C57.9098 11.083 58.1296 10.9942 58.3191 10.8572C58.5085 10.7203 58.6618 10.5393 58.7657 10.33L61.4162 4.99221L64.0407 10.3417C64.1436 10.5515 64.296 10.7332 64.4847 10.871C64.6734 11.0088 64.8928 11.0987 65.124 11.1328L71.0198 12.0039L66.7419 16.1554ZM109.658 15.5474L102.599 14.5043L99.4571 8.09771C99.3386 7.85625 99.1549 7.65275 98.9268 7.51023C98.6987 7.36771 98.4352 7.29185 98.1663 7.29125H98.1629C97.8945 7.29126 97.6315 7.36619 97.4034 7.50761C97.1753 7.64903 96.9912 7.85133 96.8719 8.09171L93.6984 14.4819L86.6343 15.4909C86.3681 15.529 86.1178 15.6407 85.9118 15.8135C85.7057 15.9864 85.5522 16.2134 85.4684 16.469C85.3847 16.7245 85.3741 16.9984 85.4379 17.2596C85.5016 17.5209 85.6372 17.7591 85.8293 17.9473L90.9273 22.9406L89.7035 29.972C89.6574 30.237 89.6864 30.5096 89.7871 30.7589C89.8879 31.0083 90.0564 31.2245 90.2736 31.3831C90.4907 31.5417 90.748 31.6364 91.0162 31.6564C91.2844 31.6765 91.5528 31.6211 91.7912 31.4965L98.1156 28.1912L104.424 31.5271C104.661 31.6527 104.929 31.7094 105.198 31.6907C105.466 31.672 105.723 31.5786 105.941 31.4212C106.159 31.2637 106.329 31.0485 106.431 30.7998C106.533 30.551 106.563 30.2787 106.519 30.0136L105.33 22.9776L110.451 18.0088C110.644 17.8216 110.781 17.584 110.846 17.3231C110.911 17.0621 110.902 16.7882 110.82 16.5322C110.737 16.2762 110.585 16.0484 110.38 15.8745C110.174 15.7007 109.925 15.5877 109.659 15.5483L109.658 15.5474ZM102.778 21.435C102.611 21.5978 102.485 21.7988 102.412 22.0209C102.339 22.2429 102.322 22.4793 102.361 22.7097L103.19 27.6134L98.7933 25.2886C98.5867 25.1793 98.3567 25.1218 98.123 25.1212C97.8892 25.1206 97.6589 25.1769 97.4518 25.2853L93.0445 27.5887L93.8971 22.6879C93.9371 22.4577 93.9205 22.2212 93.8488 21.9988C93.7772 21.7764 93.6525 21.5748 93.4855 21.4113L89.933 17.9331L94.8558 17.23C95.0872 17.1969 95.3071 17.1081 95.4965 16.9712C95.686 16.8342 95.8392 16.6533 95.9431 16.4439L98.1547 11.99L100.345 16.4547C100.448 16.6645 100.6 16.8462 100.789 16.984C100.978 17.1218 101.197 17.2117 101.428 17.2458L106.348 17.9728L102.778 21.435ZM36.1762 15.5474L29.1164 14.5043L25.9744 8.09771C25.8559 7.85628 25.6723 7.65281 25.4442 7.51029C25.2162 7.36777 24.9528 7.2919 24.6839 7.29125H24.6803C24.4119 7.29126 24.1488 7.36619 23.9208 7.50761C23.6927 7.64903 23.5086 7.85133 23.3892 8.09171L20.2157 14.4819L13.1517 15.4909C12.8855 15.529 12.6352 15.6408 12.4292 15.8136C12.2232 15.9865 12.0697 16.2135 11.9859 16.469C11.9022 16.7246 11.8917 16.9985 11.9554 17.2597C12.0192 17.5209 12.1548 17.7591 12.3469 17.9473L17.4446 22.9406L16.2214 29.9711C16.1752 30.236 16.2042 30.5087 16.3049 30.7581C16.4057 31.0075 16.5742 31.2237 16.7914 31.3823C17.0087 31.5409 17.2659 31.6356 17.5342 31.6556C17.8024 31.6756 18.0709 31.6202 18.3092 31.4956L24.6334 28.1912L30.9422 31.5271C31.1799 31.6528 31.448 31.7095 31.7163 31.6908C31.9845 31.6721 32.2422 31.5788 32.4601 31.4214C32.6781 31.2639 32.8477 31.0486 32.9497 30.7999C33.0518 30.5511 33.0822 30.2787 33.0375 30.0136L31.8481 22.9776L36.9699 18.0088C37.163 17.8216 37.2998 17.584 37.3648 17.3231C37.4299 17.0621 37.4207 16.7882 37.3382 16.5322C37.2558 16.2762 37.1033 16.0484 36.8981 15.8745C36.6929 15.7007 36.4432 15.5877 36.1772 15.5483L36.1762 15.5474ZM29.2961 21.435C29.1284 21.5977 29.0027 21.7988 28.9299 22.0208C28.8571 22.2429 28.8395 22.4793 28.8784 22.7097L29.7072 27.6134L25.3109 25.2886C25.1043 25.1793 24.8743 25.1218 24.6406 25.1212C24.4068 25.1206 24.1765 25.1769 23.9694 25.2853L19.5623 27.5887L20.4147 22.6879C20.4547 22.4577 20.4382 22.2212 20.3665 21.9988C20.2949 21.7764 20.1703 21.5748 20.0034 21.4113L16.4508 17.9331L21.3737 17.23C21.6053 17.1971 21.8253 17.1083 22.0149 16.9713C22.2045 16.8343 22.358 16.6532 22.4619 16.4437L24.6738 11.9898L26.8638 16.4545C26.9667 16.6643 27.1191 16.846 27.3078 16.9838C27.4966 17.1216 27.716 17.2115 27.9472 17.2456L32.8667 17.9725L29.2961 21.435Z" fill="#096E49"/>
</g>
</g>
</svg>
