<svg width="40" height="41" viewBox="0 0 40 41" fill="none" xmlns="http://www.w3.org/2000/svg">
<g clip-path="url(#clip0_100_4632)">
<path d="M30.625 0.591553H9.375C4.19733 0.591553 0 4.78888 0 9.96655V31.2166C0 36.3942 4.19733 40.5916 9.375 40.5916H30.625C35.8027 40.5916 40 36.3942 40 31.2166V9.96655C40 4.78888 35.8027 0.591553 30.625 0.591553Z" fill="url(#paint0_radial_100_4632)"/>
<path d="M30.625 0.591553H9.375C4.19733 0.591553 0 4.78888 0 9.96655V31.2166C0 36.3942 4.19733 40.5916 9.375 40.5916H30.625C35.8027 40.5916 40 36.3942 40 31.2166V9.96655C40 4.78888 35.8027 0.591553 30.625 0.591553Z" fill="url(#paint1_radial_100_4632)"/>
<path d="M20.0014 4.96655C15.758 4.96655 15.2253 4.98515 13.5588 5.06093C11.8953 5.13718 10.7598 5.40046 9.76641 5.78687C8.73859 6.18593 7.86688 6.71983 6.99844 7.58858C6.12922 8.45718 5.59531 9.3289 5.195 10.3562C4.8075 11.35 4.54391 12.4859 4.46906 14.1486C4.39453 15.8153 4.375 16.3481 4.375 20.5917C4.375 24.8353 4.39375 25.3662 4.46938 27.0328C4.54594 28.6962 4.80922 29.8317 5.19531 30.8251C5.59469 31.853 6.12859 32.7247 6.99734 33.5931C7.86563 34.4623 8.73734 34.9975 9.76438 35.3966C10.7586 35.783 11.8942 36.0462 13.5573 36.1225C15.2241 36.1983 15.7563 36.2169 19.9995 36.2169C24.2434 36.2169 24.7744 36.1983 26.4409 36.1225C28.1044 36.0462 29.2411 35.783 30.2353 35.3966C31.2627 34.9975 32.1331 34.4623 33.0012 33.5931C33.8705 32.7247 34.4042 31.853 34.8047 30.8256C35.1887 29.8317 35.4525 28.6959 35.5306 27.0331C35.6055 25.3666 35.625 24.8353 35.625 20.5917C35.625 16.3481 35.6055 15.8156 35.5306 14.1489C35.4525 12.4855 35.1887 11.3501 34.8047 10.3567C34.4042 9.3289 33.8705 8.45718 33.0012 7.58858C32.1322 6.71952 31.263 6.18562 30.2344 5.78702C29.2383 5.40046 28.1022 5.13702 26.4387 5.06093C24.772 4.98515 24.2414 4.96655 19.9966 4.96655H20.0014ZM18.5997 7.78233C19.0158 7.78171 19.48 7.78233 20.0014 7.78233C24.1734 7.78233 24.6678 7.79733 26.3153 7.87218C27.8387 7.94187 28.6656 8.1964 29.2164 8.4103C29.9456 8.69343 30.4655 9.03202 31.012 9.57905C31.5589 10.1259 31.8973 10.6467 32.1813 11.3759C32.3952 11.9259 32.65 12.7528 32.7194 14.2762C32.7942 15.9234 32.8105 16.4181 32.8105 20.5881C32.8105 24.7581 32.7942 25.253 32.7194 26.9C32.6497 28.4234 32.3952 29.2503 32.1813 29.8005C31.8981 30.5297 31.5589 31.0489 31.012 31.5955C30.4652 32.1423 29.9459 32.4808 29.2164 32.7641C28.6663 32.9789 27.8387 33.2328 26.3153 33.3025C24.6681 33.3773 24.1734 33.3936 20.0014 33.3936C15.8292 33.3936 15.3347 33.3773 13.6877 33.3025C12.1642 33.2322 11.3373 32.9776 10.7861 32.7637C10.057 32.4805 9.53609 32.142 8.98922 31.5951C8.44234 31.0483 8.10391 30.5287 7.82 29.7992C7.60609 29.2491 7.35125 28.4222 7.28188 26.8987C7.20703 25.2516 7.19203 24.7569 7.19203 20.5842C7.19203 16.4117 7.20703 15.9195 7.28188 14.2723C7.35156 12.7489 7.60609 11.922 7.82 11.3712C8.10328 10.642 8.44234 10.1212 8.98938 9.57437C9.53625 9.02749 10.057 8.6889 10.7862 8.40515C11.337 8.1903 12.1642 7.9364 13.6877 7.8664C15.1291 7.80124 15.6877 7.78171 18.5997 7.77843V7.78233ZM28.342 10.3767C27.3069 10.3767 26.467 11.2158 26.467 12.2511C26.467 13.2862 27.3069 14.1261 28.342 14.1261C29.3772 14.1261 30.217 13.2862 30.217 12.2511C30.217 11.2159 29.3772 10.3761 28.342 10.3761V10.3767ZM20.0014 12.5675C15.5702 12.5675 11.9773 16.1603 11.9773 20.5917C11.9773 25.0231 15.5702 28.6142 20.0014 28.6142C24.4328 28.6142 28.0244 25.0231 28.0244 20.5917C28.0244 16.1605 24.4325 12.5675 20.0011 12.5675H20.0014ZM20.0014 15.3833C22.8778 15.3833 25.2098 17.715 25.2098 20.5917C25.2098 23.4681 22.8778 25.8001 20.0014 25.8001C17.1248 25.8001 14.7931 23.4681 14.7931 20.5917C14.7931 17.715 17.1248 15.3833 20.0014 15.3833Z" fill="white"/>
</g>
<defs>
<radialGradient id="paint0_radial_100_4632" cx="0" cy="0" r="1" gradientUnits="userSpaceOnUse" gradientTransform="translate(10.625 43.6723) rotate(-90) scale(39.643 36.8711)">
<stop stop-color="#FFDD55"/>
<stop offset="0.1" stop-color="#FFDD55"/>
<stop offset="0.5" stop-color="#FF543E"/>
<stop offset="1" stop-color="#C837AB"/>
</radialGradient>
<radialGradient id="paint1_radial_100_4632" cx="0" cy="0" r="1" gradientUnits="userSpaceOnUse" gradientTransform="translate(-6.70016 3.47296) rotate(78.681) scale(17.7206 73.045)">
<stop stop-color="#3771C8"/>
<stop offset="0.128" stop-color="#3771C8"/>
<stop offset="1" stop-color="#6600FF" stop-opacity="0"/>
</radialGradient>
<clipPath id="clip0_100_4632">
<rect width="40" height="40" fill="white" transform="translate(0 0.591553)"/>
</clipPath>
</defs>
</svg>
