<svg width="40" height="41" viewBox="0 0 40 41" fill="none" xmlns="http://www.w3.org/2000/svg">
<g clip-path="url(#clip0_100_4629)">
<path d="M40 20.5916C40 9.54593 31.0456 0.591553 20 0.591553C8.95437 0.591553 0 9.54577 0 20.5916C0 30.5741 7.31375 38.8483 16.875 40.3486V26.3728H11.7969V20.5916H16.875V16.1853C16.875 11.1728 19.8609 8.40405 24.4292 8.40405C26.6175 8.40405 28.9062 8.79468 28.9062 8.79468V13.7166H26.3844C23.8997 13.7166 23.125 15.2583 23.125 16.84V20.5916H28.6719L27.7852 26.3728H23.125V40.3486C32.6862 38.8483 40 30.5742 40 20.5916Z" fill="#1877F2"/>
<path d="M27.7852 26.3728L28.6719 20.5916H23.125V16.84C23.125 15.2581 23.8998 13.7166 26.3844 13.7166H28.9062V8.79468C28.9062 8.79468 26.6175 8.40405 24.4292 8.40405C19.8609 8.40405 16.875 11.1728 16.875 16.1853V20.5916H11.7969V26.3728H16.875V40.3486C17.9088 40.5106 18.9536 40.5918 20 40.5916C21.0464 40.5919 22.0912 40.5106 23.125 40.3486V26.3728H27.7852Z" fill="white"/>
</g>
<defs>
<clipPath id="clip0_100_4629">
<rect width="40" height="40" fill="white" transform="translate(0 0.591553)"/>
</clipPath>
</defs>
</svg>
